<svg width="110" height="40" xmlns="http://www.w3.org/2000/svg">
  <g fill="#000" fill-rule="evenodd" stroke="#000" stroke-linecap="round" stroke-width="0.25mm" transform="matrix(0.407343 0 0 0.405407 2.519 16.7636)">
   <path d="m13.88,42.29a17.39,19.41 0 0 0 3.64,0.4q5.04,0 9.39,-2.73a27.33,30.51 0 0 0 2.19,-1.52a30.29,33.81 0 0 0 5.69,-5.77a44.63,49.82 0 0 0 4,-6.05a40.09,44.75 0 0 0 -0.01,0.02a26.66,29.76 0 0 0 -0.17,3.23a19.43,21.7 0 0 0 0.13,2.6q0.2,1.84 0.69,3.44a8.76,9.78 0 0 0 0.12,0.37q0.4,1.15 0.93,1.73a1.68,1.88 0 0 0 1.2,0.59q1.05,0 2.03,-1.68a15.71,17.54 0 0 0 0.47,-0.85q0.38,-0.73 0.76,-1.63a33.2,37.07 0 0 0 0.73,-1.85q0.98,-2.65 2.06,-5.58q1.09,-2.94 2.33,-5.58q1.24,-2.65 2.74,-4.32a6.14,6.86 0 0 1 0.58,-0.57a4.47,4.99 0 0 1 2.8,-1.11a3.47,3.88 0 0 1 0.04,0a2.75,3.07 0 0 1 1.99,0.92q0.61,0.68 0.77,2.04a7.31,8.17 0 0 1 0.06,1.07a12.63,14.1 0 0 1 -0.11,1.85a15.94,17.8 0 0 1 -0.45,2.43q-0.56,2.27 -1.16,4.45a17.31,19.33 0 0 0 -0.11,0.43q-0.23,0.92 -0.36,1.77a9.86,11 0 0 0 -0.13,1.75q0,2.27 1.31,3.78a3.92,4.38 0 0 0 0.86,0.74q0.67,0.43 1.53,0.62a7.72,8.62 0 0 0 1.47,0.15a9.73,10.87 0 0 0 2.52,-0.37a11.09,12.38 0 0 0 3.11,-1.56a17.28,19.29 0 0 0 2.44,-2.11a21.67,24.2 0 0 0 2.06,-2.47a14.01,15.64 0 0 0 -0.07,1.49a10.82,12.09 0 0 0 0.05,1.14q0.09,1.04 0.35,1.88a4.79,5.36 0 0 0 1.23,2.21q1.61,1.72 3.95,1.72q1.74,0 3.43,-0.95a11.04,12.33 0 0 0 2.02,-1.49a23.24,25.95 0 0 0 1.91,-1.97q1.87,-2.15 3.99,-5.34q-0.08,0.67 -0.15,1.3q-0.04,0.33 -0.06,0.62a6.46,7.21 0 0 0 -0.02,0.52a5.45,6.08 0 0 0 0.3,2a6.13,6.84 0 0 0 1.01,2.02a3.95,4.4 0 0 0 0.86,0.9q0.71,0.54 1.68,0.78a7.39,8.26 0 0 0 1.56,0.17a9.29,10.37 0 0 0 3.16,-0.64a12.88,14.38 0 0 0 2.36,-1.29q2.81,-1.93 5.3,-5.36a24.46,27.31 0 0 0 1.46,-2.26a28.02,31.29 0 0 0 0.65,-1.18a23.73,26.49 0 0 0 -0.08,2.09a15.4,17.2 0 0 0 0,0.3q0.06,3.49 1.39,5.86a4.51,5.03 0 0 0 2.86,2.26a7.38,8.24 0 0 0 1.76,0.22a8.67,9.68 0 0 0 1.19,-0.09q3.39,-0.52 6.4,-4.06a26.04,29.07 0 0 0 1.39,-1.78a34.92,38.98 0 0 0 1.81,-2.76a15.85,17.69 0 0 0 -0.05,1.23a10.43,11.65 0 0 0 0.15,2.03a7.71,8.61 0 0 0 1.2,3.38a4.08,4.56 0 0 0 1.17,1.29q1.3,0.94 3.41,0.94a7.46,8.33 0 0 0 1.16,-0.1q1.28,-0.23 2.59,-0.95a13.73,15.33 0 0 0 2.14,-1.47q3.04,-2.52 5.6,-6.29q0.83,0.42 1.73,0.62a8.55,9.54 0 0 0 0.11,0.03a9.24,10.31 0 0 0 1.76,0.18q2.48,0 5.22,-1.64a8.55,9.54 0 0 0 2.61,-2.44l0.06,0.14a33.37,37.27 0 0 0 0.44,-0.86a55.92,62.44 0 0 0 0.15,-0.3a12.35,13.79 0 0 0 0.97,-2.06a95.48,106.61 0 0 0 0.62,-1.41a145.82,162.81 0 0 0 0.89,-2.09q1.88,-4.45 3.61,-9.4q1.43,1.09 2.81,2.39q1.39,1.3 1.39,3.99q0,1.36 -0.4,2.94a15.59,17.41 0 0 1 -0.62,1.97q-1.01,2.73 -2.06,5.49a14.4,16.07 0 0 0 -0.68,2.2a10.87,12.13 0 0 0 -0.37,3.08a6.12,6.83 0 0 0 0.02,0.49a4.48,5.01 0 0 0 1.45,3.45a4.57,5.1 0 0 0 0.53,0.47q0.81,0.62 1.87,0.86a7.8,8.72 0 0 0 1.63,0.17a10.64,11.88 0 0 0 3.09,-0.51a12.67,14.15 0 0 0 3.19,-1.67a21.75,24.29 0 0 0 1.53,-1.21a24.28,27.12 0 0 0 3.5,-3.72a14.01,15.64 0 0 0 -0.11,1.9a10.82,12.09 0 0 0 0.05,1.14q0.09,1.04 0.35,1.88a4.79,5.36 0 0 0 1.23,2.21q1.61,1.72 3.95,1.72q1.74,0 3.43,-0.95a11.04,12.33 0 0 0 2.02,-1.49a23.24,25.95 0 0 0 1.9,-1.97q1.88,-2.15 4,-5.34q-0.08,0.67 -0.15,1.3q-0.04,0.33 -0.06,0.62a6.46,7.21 0 0 0 -0.02,0.52a5.45,6.08 0 0 0 0.3,2a6.13,6.84 0 0 0 1.01,2.02a3.95,4.4 0 0 0 0.86,0.9q0.71,0.54 1.68,0.78a7.39,8.26 0 0 0 1.56,0.17a9.29,10.37 0 0 0 3.16,-0.64a12.88,14.38 0 0 0 2.36,-1.29q2.81,-1.93 5.3,-5.36a24.46,27.31 0 0 0 1.46,-2.26a28.02,31.29 0 0 0 0.21,-0.37a36.13,40.34 0 0 0 -0.01,0.02a22.67,25.31 0 0 0 -0.17,2.95q0,2.18 0.49,3.8a5.94,6.62 0 0 0 1.24,2.41q1.16,1.41 3,1.87a8.92,9.96 0 0 0 1.96,0.23a12.56,14.02 0 0 0 2.75,-0.34a14.05,15.69 0 0 0 4.09,-1.84a20.45,22.84 0 0 0 2.64,-2.08a24.63,27.5 0 0 0 3.41,-3.88a31.95,35.67 0 0 0 1.09,-1.6a11.37,12.69 0 0 0 0.02,0.53a8.73,9.75 0 0 0 2.28,6.23a6.81,7.6 0 0 0 1.53,1.4q1.17,0.8 2.71,1.14a13.26,14.81 0 0 0 2.64,0.28a15.29,17.07 0 0 0 2.6,-0.25a17.03,19.01 0 0 0 4.8,-1.8a22.34,24.94 0 0 0 2.66,-1.77a26.08,29.13 0 0 0 4.1,-3.98a25.95,28.97 0 0 0 1.67,-2.18a29.08,32.46 0 0 0 3.48,-6.54l-0.9,-0.75q-1.88,4.02 -4.59,7.39q-2.7,3.35 -5.86,5.41q-3.15,2.06 -6.39,2.06a10.53,11.76 0 0 1 -0.52,-0.02q-0.65,-0.04 -1.2,-0.16a5.49,6.13 0 0 1 -1.17,-0.41a5.34,5.95 0 0 1 -0.42,-0.24a4.35,4.86 0 0 1 -1.42,-1.41q-0.68,-1.05 -0.94,-2.31q-0.26,-1.26 -0.26,-2.52a10.32,11.52 0 0 1 0.01,-0.51a12.43,13.88 0 0 1 0.07,-0.92a14.94,16.68 0 0 1 0.07,-0.58a17.86,19.94 0 0 1 0.16,-1.02a22.9,25.57 0 0 0 1.31,-0.17a25.31,28.26 0 0 0 5.19,-1.54q3.27,-1.39 6.01,-3.56q2.74,-2.18 4.44,-4.99a11.41,12.73 0 0 0 0.13,-0.22a9.42,10.51 0 0 0 1.57,-5.78a10.55,11.78 0 0 0 0,-0.03q0,-1.63 -0.41,-2.68a2.69,3 0 0 0 -1.05,-1.41q-1.46,-1.01 -3.19,-1.01a11.36,12.69 0 0 0 -3.74,0.73a15.25,17.03 0 0 0 -2.95,1.58a23.8,26.57 0 0 0 -2.06,1.58a27.08,30.23 0 0 0 -4.14,4.42a32.42,36.2 0 0 0 -0.02,0.03a29.56,33.01 0 0 0 -4.48,7.86a20.85,23.28 0 0 0 -1.15,3.59a15.31,17.09 0 0 0 -0.27,1.31a35.64,39.8 0 0 1 -0.97,1.61a25.14,28.07 0 0 1 -3.42,4.39a18.68,20.85 0 0 1 -0.62,0.61q-1.34,1.27 -2.7,2.03a9.5,10.61 0 0 1 -4.35,1.22q-2.25,0 -3.23,-1.55a3.57,4 0 0 1 -0.28,-0.54q-0.47,-1.08 -0.62,-2.85a16.9,18.88 0 0 1 -0.07,-1.77a27.14,30.31 0 0 1 0.1,-2.66a31.04,34.66 0 0 1 1.1,-6.49q1.2,-4.69 2.93,-9.14l0.56,0l0.56,0q2.55,0 5.82,-0.25a133.28,148.8 0 0 0 0.43,-0.04q1.55,-0.13 3.28,-0.3a227.3,253.77 0 0 0 3.68,-0.42l0,-1.51q-2.78,0.34 -5.52,0.42q-2.74,0.08 -5.22,0.08l-1.39,0l-1.39,0a119.04,132.91 0 0 1 1.38,-3.18a101.17,112.95 0 0 1 3.13,-6.47a376.51,420.37 0 0 0 1.38,-2.66q1.44,-2.79 2.52,-5.02a33.02,36.86 0 0 0 0.22,-0.46q0.99,-2.09 1.27,-3.37a3.29,3.67 0 0 0 0.09,-0.82q0,-0.34 -0.07,-0.62a1.31,1.47 0 0 0 -0.42,-0.75a2.06,2.31 0 0 0 -0.05,-0.05a1.63,1.82 0 0 0 -1.04,-0.42q-0.86,0 -2.02,1.16a10.75,12 0 0 0 -0.73,0.82a18.97,21.18 0 0 0 -0.8,1.04q-1.25,1.74 -2.59,4.24q-1.76,3.32 -3.57,7.55q-1.8,4.23 -3.38,8.76a135.6,151.4 0 0 1 -0.13,-0.01q-0.97,-0.08 -1.74,-0.16q-0.83,-0.08 -1.43,-0.17l0,1.51q0.6,0.25 1.28,0.38q0.68,0.13 1.43,0.29q-1.88,5.7 -3.12,11.11a52.42,58.53 0 0 0 -0.38,1.74a56.18,62.72 0 0 1 -0.99,1.75q-1.16,1.97 -2.32,3.53a23.54,26.28 0 0 1 -2.44,2.88q-2.32,2.33 -4.02,3.02a3.85,4.31 0 0 1 -1.31,0.29a3.04,3.39 0 0 1 -0.32,-0.02q-0.51,-0.06 -0.9,-0.33a2.04,2.28 0 0 1 -0.73,-0.87a5.38,6.01 0 0 1 -0.21,-0.46a4.4,4.91 0 0 1 -0.4,-2.01a5.45,6.08 0 0 1 0,-0.11q0.02,-1.46 0.68,-3.12q0.68,-1.72 1.5,-3.4q0.44,-0.89 0.83,-1.68a109.63,122.39 0 0 1 0.67,-1.3a9.29,10.38 0 0 0 0.21,-0.4q0.31,-0.66 0.41,-1.16a1.89,2.1 0 0 0 0.06,-0.5a1.11,1.24 0 0 0 -0.21,-0.73a1.36,1.52 0 0 0 -0.32,-0.35a3.9,4.35 0 0 0 -0.51,-0.34a4.86,5.43 0 0 0 -0.74,-0.34a17.02,19.01 0 0 0 -0.07,-0.03q-0.45,-0.15 -0.79,-0.24a5.25,5.86 0 0 0 -0.31,-0.06a0.06,0.06 0 0 0 -0.02,0.01q-0.08,0.05 -0.25,0.34a7.32,8.18 0 0 0 -0.09,0.16q-1.5,2.52 -3.46,5.54q-1.95,3.02 -4.1,5.83a42.78,47.76 0 0 1 -0.3,0.39q-0.98,1.26 -1.95,2.31a25.24,28.18 0 0 1 -1.92,1.91q-2.03,1.8 -3.76,1.8a2.7,3.01 0 0 1 -0.11,0q-1.91,-0.09 -1.91,-3.27a11.3,12.62 0 0 1 0.02,-0.83q0.07,-1.08 0.29,-2.3a21.24,23.72 0 0 1 0.59,-2.41a28.93,32.3 0 0 1 0.67,-2.05a34.05,38.02 0 0 1 1.81,-4.24q1.58,-3.19 3.61,-5.92a23.78,26.55 0 0 1 1.83,-2.21a17.8,19.88 0 0 1 2.37,-2.15a11.59,12.94 0 0 1 0.11,-0.08q0.86,-0.62 1.72,-1.01a6.67,7.44 0 0 1 2.46,-0.54q0.83,0 1.45,0.23a2.6,2.9 0 0 1 1.41,1.16a4.75,5.3 0 0 1 0.66,1.65a6.05,6.75 0 0 1 0.17,1.66q0,0.67 -0.11,1.47a17.33,19.35 0 0 1 -0.1,0.67a13.77,15.37 0 0 1 -0.16,0.8a7.43,8.29 0 0 0 0.47,-0.02q1.34,-0.09 2.2,-0.73q0.75,-0.56 0.95,-1.86a5.42,6.04 0 0 0 0.07,-0.99a6.27,7.01 0 0 0 -0.02,-0.62a4.89,5.47 0 0 0 -1.93,-3.96a6.91,7.72 0 0 0 -2.59,-1.41a9.19,10.26 0 0 0 -2.29,-0.3a11.82,13.2 0 0 0 -2.76,0.37a14.34,16 0 0 0 -3.14,1.3a21.93,24.49 0 0 0 -1.83,1.16a25.21,28.14 0 0 0 -3.81,3.33q-2.66,2.81 -4.77,6.21a33.34,37.23 0 0 0 -1,1.73a28.4,31.71 0 0 0 -2.3,5.15a22.98,25.66 0 0 0 -0.02,0.05a19.34,21.6 0 0 0 -0.29,0.89a29.27,32.68 0 0 1 -2.7,3.3a22.91,25.58 0 0 1 -1.13,1.14a19.12,21.35 0 0 1 -2.59,2.05a9.01,10.06 0 0 1 -1.6,0.84a6.42,7.16 0 0 1 -2.12,0.42a3.38,3.78 0 0 1 -0.32,-0.02a2.69,3 0 0 1 -1.27,-0.49a1.17,1.3 0 0 1 -0.11,-0.1q-0.56,-0.53 -0.56,-1.91q0,-1.16 0.4,-2.56a13.57,15.15 0 0 1 0.53,-1.54q0.94,-2.35 1.88,-4.95q0.93,-2.58 0.94,-5.08a10.81,12.07 0 0 0 0,-0.05a9.86,11 0 0 0 0,-0.06q-0.01,-1.03 -0.19,-1.92a5.57,6.22 0 0 0 -0.98,-2.42q-1.16,-1.72 -2.66,-2.94a411.77,459.73 0 0 1 -0.41,-0.34q-1.26,-1.02 -2.25,-1.85q-1.16,-0.96 -1.16,-2.14a0.31,0.34 0 0 1 0,-0.03q0.02,-0.22 0.27,-1.02a26.68,29.79 0 0 1 0.14,-0.42a17.69,19.75 0 0 0 0.09,-0.3q0.24,-0.73 0.29,-1.11a1.21,1.35 0 0 0 0.02,-0.22a3.16,3.53 0 0 0 -0.01,-0.16q-0.02,-0.4 -0.1,-1.06a1.16,1.3 0 0 0 -0.02,-0.12q-0.11,-0.51 -0.57,-0.63a1.42,1.59 0 0 0 -0.35,-0.05a0.7,0.78 0 0 0 -0.22,0.05q-0.45,0.17 -1.17,0.97a12.74,14.22 0 0 0 -0.49,0.58a4.82,5.38 0 0 0 -1.08,2.25a6.5,7.26 0 0 0 -0.21,1.86a2.93,3.26 0 0 0 0,0.04a2.46,2.75 0 0 0 0.75,1.98q-1.65,5.36 -3.34,9.56q-1.27,3.14 -2.18,5.16a45.5,50.8 0 0 1 -0.27,0.6a7.91,8.84 0 0 1 -1.3,1.54a10.88,12.14 0 0 1 -1.24,0.99a8.19,9.14 0 0 1 -1.73,0.9a12.71,14.18 0 0 1 -0.4,0.14q-0.59,0.19 -1.13,0.29a7.09,7.92 0 0 1 -1.17,0.12q-1.5,0 -2.85,-0.84q2.18,-3.69 3.61,-7.68a25.8,28.81 0 0 0 0.32,-0.92q0.52,-1.62 0.8,-3.12a14.24,15.9 0 0 0 0.32,-3.22a11.45,12.79 0 0 0 0,-0.23q-0.02,-1.11 -0.21,-2.06a6.46,7.21 0 0 0 -0.84,-2.33q-0.79,-1.39 -2.72,-1.73a8.94,9.98 0 0 0 -1.42,-0.12a7.77,8.67 0 0 0 -0.66,0.04a6.03,6.73 0 0 0 -3.32,1.43a7.65,8.54 0 0 0 -1.3,1.47a8.91,9.95 0 0 0 -1.22,2.43q-0.86,2.43 -0.86,5.2q0,3.27 1.16,6.42a13.48,15.05 0 0 0 0.6,1.41a10.9,12.16 0 0 0 2.66,3.67a30.45,34 0 0 1 -1.99,2.53a22.51,25.13 0 0 1 -2.29,2.3a14.63,16.33 0 0 1 -0.38,0.32q-1.94,1.57 -3.38,1.57q-1.2,0 -1.95,-1.13a2.59,2.89 0 0 1 -0.17,-0.3q-0.58,-1.14 -0.58,-3.34a8.63,9.63 0 0 1 0.05,-0.95q0.06,-0.63 0.19,-1.37a19.15,21.38 0 0 1 0.33,-1.54a36.55,40.8 0 0 1 0.04,-0.15a39.59,44.2 0 0 1 1.35,-4.43a32.51,36.3 0 0 1 0.75,-1.94a25.01,27.92 0 0 1 1.01,-2.18a21.24,23.72 0 0 1 0.34,-0.62q0.72,-1.3 1.28,-1.86a6.74,7.52 0 0 0 -0.05,-0.02a7.32,8.18 0 0 0 -0.74,-0.28a3.43,3.83 0 0 0 -0.28,-0.07a2.8,3.13 0 0 0 -0.51,-0.05a3.7,4.13 0 0 0 -0.62,0.06q-0.72,0.14 -1.44,0.59a6.54,7.3 0 0 0 -1.07,0.86a11.78,13.15 0 0 0 -1.56,1.86a16.03,17.9 0 0 0 -1.23,2.08q-1.24,2.43 -1.99,5.2a18.83,21.03 0 0 0 -0.09,0.35a39.97,44.63 0 0 1 -1.45,2.71a26.42,29.5 0 0 1 -1.71,2.65a19.69,21.98 0 0 1 -2.05,2.43a9.93,11.09 0 0 1 -0.4,0.38q-1.79,1.64 -3.62,1.64q-1.02,0 -1.73,-0.62a2.99,3.33 0 0 1 -0.75,-0.98a4.05,4.52 0 0 1 -0.17,-0.36q-0.45,-1.08 -0.59,-2.79a16.63,18.56 0 0 1 -0.07,-1.71a23.97,26.77 0 0 1 0.03,-1.3a28.37,31.67 0 0 1 0.23,-2.77a44.54,49.73 0 0 1 0.09,-0.67a49.6,55.37 0 0 1 0.62,-3.73a37.36,41.71 0 0 0 2.23,-2.21a44.22,49.37 0 0 0 4.04,-5q2.97,-4.2 5.49,-8.76a83.34,93.05 0 0 0 1.22,-2.28a73.41,81.96 0 0 0 3.14,-6.78q1.04,-2.53 1.81,-4.79a49.5,55.27 0 0 0 1.04,-3.35a37.84,42.24 0 0 0 0.09,-0.33q0.61,-2.25 0.82,-3.95a10.89,12.15 0 0 0 0.1,-1.64a7.66,8.56 0 0 0 0,-0.25q-0.03,-1.07 -0.3,-2.39a11.73,13.1 0 0 0 -0.04,-0.18q-0.29,-1.35 -0.79,-2.33a3.09,3.44 0 0 0 -0.05,-0.08q-0.15,-0.29 -0.33,-0.5a1.33,1.49 0 0 0 -0.98,-0.47q-1,0 -2.58,1.75a18.37,20.51 0 0 0 -0.92,1.1q-1.42,1.83 -3,4.45a75.89,84.73 0 0 0 -1.84,3.19q-2.63,4.79 -5.26,10.61q-2.63,5.83 -4.85,11.95q-2.21,6.13 -3.57,11.66a49.38,55.13 0 0 0 -0.58,2.61a35.81,39.99 0 0 0 -0.13,0.73a56.18,62.72 0 0 1 -1.29,2.3q-1.16,1.97 -2.32,3.53a23.54,26.28 0 0 1 -2.44,2.88q-2.32,2.33 -4.02,3.02a3.85,4.31 0 0 1 -1.31,0.29a3.04,3.39 0 0 1 -0.32,-0.02q-0.51,-0.06 -0.9,-0.33a2.04,2.28 0 0 1 -0.73,-0.87a5.38,6.01 0 0 1 -0.21,-0.46a4.4,4.91 0 0 1 -0.4,-2.01a5.45,6.08 0 0 1 0,-0.11q0.02,-1.46 0.68,-3.12q0.68,-1.72 1.5,-3.4q0.43,-0.89 0.83,-1.68a109.63,122.39 0 0 1 0.67,-1.3a9.29,10.38 0 0 0 0.21,-0.4q0.31,-0.66 0.41,-1.16a1.89,2.1 0 0 0 0.06,-0.5a1.11,1.24 0 0 0 -0.21,-0.73a1.36,1.52 0 0 0 -0.32,-0.35a3.9,4.35 0 0 0 -0.51,-0.34a4.86,5.43 0 0 0 -0.74,-0.34a17.02,19.01 0 0 0 -0.07,-0.03q-0.44,-0.15 -0.79,-0.24a5.25,5.86 0 0 0 -0.31,-0.06a0.06,0.06 0 0 0 -0.03,0.01q-0.07,0.05 -0.25,0.34a7.32,8.18 0 0 0 -0.09,0.16q-1.5,2.52 -3.46,5.54q-1.95,3.02 -4.1,5.83a42.78,47.76 0 0 1 -0.3,0.39q-0.98,1.26 -1.95,2.31a25.24,28.18 0 0 1 -1.92,1.91q-2.03,1.8 -3.76,1.8a2.7,3.01 0 0 1 -0.11,0q-1.91,-0.09 -1.91,-3.27a11.3,12.62 0 0 1 0.02,-0.83q0.07,-1.08 0.29,-2.3a21.24,23.72 0 0 1 0.59,-2.41a28.93,32.3 0 0 1 0.67,-2.05a34.05,38.02 0 0 1 1.81,-4.24q1.58,-3.19 3.61,-5.92a23.78,26.55 0 0 1 1.83,-2.21a17.8,19.88 0 0 1 2.37,-2.15a11.59,12.94 0 0 1 0.11,-0.08q0.86,-0.62 1.72,-1.01a6.67,7.44 0 0 1 2.46,-0.54q0.83,0 1.45,0.23a2.6,2.9 0 0 1 1.41,1.16a4.75,5.3 0 0 1 0.66,1.65a6.05,6.75 0 0 1 0.17,1.66q0,0.67 -0.11,1.47a17.33,19.35 0 0 1 -0.1,0.67a13.77,15.37 0 0 1 -0.16,0.8a7.43,8.29 0 0 0 0.47,-0.02q1.34,-0.09 2.2,-0.73q0.75,-0.56 0.95,-1.86a5.42,6.04 0 0 0 0.07,-0.99a6.27,7.01 0 0 0 -0.02,-0.62a4.89,5.47 0 0 0 -1.93,-3.96a6.91,7.72 0 0 0 -2.59,-1.41a9.19,10.26 0 0 0 -2.29,-0.3a11.82,13.2 0 0 0 -2.76,0.37a14.34,16 0 0 0 -3.14,1.3a21.93,24.49 0 0 0 -1.83,1.16a25.21,28.14 0 0 0 -3.81,3.33q-2.66,2.81 -4.77,6.21a33.34,37.23 0 0 0 -1,1.73a28.4,31.71 0 0 0 -2.3,5.15a22.98,25.66 0 0 0 -0.02,0.05a19.34,21.6 0 0 0 -0.24,0.73a31.83,35.54 0 0 1 -1.17,1.83a33.45,37.35 0 0 1 -0.35,0.51q-0.95,1.32 -1.9,2.41a19.58,21.86 0 0 1 -2,1.99a11.24,12.54 0 0 1 -1.16,0.89q-0.65,0.42 -1.25,0.65a4.4,4.91 0 0 1 -1.45,0.3a2.77,3.09 0 0 1 -0.08,0a2.11,2.36 0 0 1 -1.54,-0.75a1.68,1.88 0 0 1 -0.02,-0.04q-0.44,-0.53 -0.56,-1.52a5.59,6.24 0 0 1 -0.06,-0.87q0,-2.09 0.83,-4.36a105.25,117.5 0 0 0 0.06,-0.15a114.5,127.84 0 0 0 1.57,-4.56q0.79,-2.43 0.79,-5.03q0,-1.85 -0.56,-3.56q-0.56,-1.72 -1.8,-2.86q-0.81,-0.73 -1.97,-0.99a7.06,7.88 0 0 0 -1.38,-0.15q-2.03,0 -3.83,1.13a11.62,12.98 0 0 0 -1.71,1.31a15.02,16.77 0 0 0 -1.72,1.87a24.42,27.26 0 0 0 -1.38,1.93a30.31,33.85 0 0 0 -1.67,2.86a43.13,48.15 0 0 0 -0.87,1.75a50.61,56.51 0 0 0 -1.79,4.21q-1.24,3.23 -2.29,6.67a12.7,14.17 0 0 1 -0.06,-0.45a15.34,17.12 0 0 1 -0.06,-0.81a15.97,17.84 0 0 1 -0.02,-0.33q-0.02,-0.28 -0.02,-0.62a31.05,34.68 0 0 1 -0.01,-0.65q0,-2.27 0.3,-5.16a42.65,47.62 0 0 1 0.08,-0.73a46.77,52.22 0 0 1 0.85,-5.19q0.64,-3.02 1.54,-5.46a20.93,23.36 0 0 0 2.69,-2.17a28.37,31.67 0 0 0 2.49,-2.66a42.71,47.69 0 0 0 0.16,-0.19a46.04,51.4 0 0 0 4.58,-6.56q2.18,-3.69 3.83,-7.5a54.83,61.22 0 0 0 1.39,-3.47a41.4,46.22 0 0 0 1.2,-3.7a27.15,30.32 0 0 0 0.44,-1.76q0.24,-1.08 0.36,-2.04a11.99,13.39 0 0 0 0.13,-1.9q0,-1.68 -0.56,-3.48a4.3,4.79 0 0 0 -0.07,-0.21q-0.58,-1.6 -1.85,-1.6q-1.27,0 -2.89,1.67a14.64,16.34 0 0 0 -1.02,1.18a29.85,33.32 0 0 0 -1.18,1.6q-0.87,1.26 -1.79,2.78a65.81,73.47 0 0 0 -1.83,3.25q-2.55,4.79 -5,10.66q-2.44,5.87 -4.4,12a118.66,132.48 0 0 0 -1.36,4.51a97.39,108.73 0 0 0 -1.79,7.15a54.78,61.16 0 0 0 -0.5,2.48a31.37,35.03 0 0 1 -4.84,7.92a33.09,36.94 0 0 1 -1.27,1.49a28.54,31.87 0 0 1 -5.99,5.14a18.98,21.2 0 0 1 -2.22,1.21a14.94,16.68 0 0 1 -5.7,1.3a11.58,12.93 0 0 1 -2.21,-0.23a8.21,9.16 0 0 1 -3.91,-2.08a10.8,12.05 0 0 1 -1.93,-2.47a12.75,14.23 0 0 1 -1.49,-3.56q-1.05,-3.73 -1.05,-7.84a36.29,40.52 0 0 1 0.25,-4.73a44.32,49.47 0 0 1 1.28,-7.27q1.54,-6.29 4.17,-12.33q2.63,-6.04 5.9,-10.95a47.55,53.09 0 0 1 0.41,-0.61q3.08,-4.49 6.35,-7.24a18.06,20.16 0 0 1 0.98,-0.77q2.97,-2.17 5.75,-2.17q1.07,0 1.81,0.32a2.59,2.88 0 0 1 1,0.73a3.15,3.52 0 0 1 0.74,1.51a4.27,4.77 0 0 1 0.13,1.21q0,1.76 -0.79,4.07q-0.79,2.31 -2.06,4.69q-1.28,2.39 -2.66,4.53q-0.87,1.33 -1.64,2.39a31.71,35.4 0 0 1 -0.88,1.18a4.76,5.32 0 0 0 0.21,0.43q0.17,0.33 0.36,0.58a2.13,2.37 0 0 0 0.53,0.5a3,3.35 0 0 0 0.53,0.28a2.14,2.39 0 0 0 0.7,0.15a3.15,3.53 0 0 0 1.11,-0.23q1.01,-0.42 2.02,-1.62q0.86,-1.04 1.65,-2.38a21.89,24.44 0 0 0 1.16,-2.27q1.28,-2.81 2.03,-5.87q0.42,-1.72 0.61,-3.24a15.03,16.78 0 0 0 0.14,-2.25a11.03,12.32 0 0 0 -0.07,-1.41q-0.29,-2.86 -1.85,-4.18q-1.2,-1.03 -2.87,-1.41a10.57,11.8 0 0 0 -2.13,-0.23a15.94,17.8 0 0 0 -4.59,0.77a20.57,22.97 0 0 0 -4.1,1.96a30.72,34.29 0 0 0 -3.77,2.77a38.26,42.71 0 0 0 -4.61,4.69a47.35,52.86 0 0 0 -1.49,1.86a52.56,58.68 0 0 0 -5.61,8.96q-3.12,6.08 -4.92,12.8a45.99,51.34 0 0 0 -0.11,0.42a41.29,46.09 0 0 0 -1.69,12.92q0,5.12 1.46,9.82a17.81,19.88 0 0 0 0.09,0.29a15.01,16.75 0 0 0 4.64,7.39a10.55,11.78 0 0 0 0.74,0.62q1.83,1.4 4.23,1.97l-0.02,0.01l0.08,-0.01zm99.59,-24.85a47.07,52.56 0 0 0 3.39,-4.23a57.04,63.68 0 0 0 1.72,-2.52q2.48,-3.82 4.62,-7.93q2.14,-4.11 3.8,-7.97q1.65,-3.86 2.55,-6.92q0.75,-2.55 0.88,-4.13a6.14,6.86 0 0 0 0.02,-0.61a4.74,5.28 0 0 0 -0.01,-0.34q-0.03,-0.51 -0.16,-0.73a0.4,0.44 0 0 0 -0.02,-0.04a1.17,1.3 0 0 0 -0.08,-0.1q-0.09,-0.11 -0.19,-0.14a0.23,0.25 0 0 0 -0.07,-0.02a0.7,0.78 0 0 0 -0.33,0.12q-0.62,0.39 -1.74,2.02a37.23,41.56 0 0 0 -1.07,1.64q-1.07,1.74 -2.35,4.11q-1.95,3.61 -3.99,8.22a137.56,153.58 0 0 0 -3.76,9.33a149.75,167.19 0 0 0 -0.11,0.32a92.99,103.82 0 0 0 -2.77,8.61a83.85,93.62 0 0 0 -0.36,1.3l0.01,0l0.02,0.01zm-66.2,-7.97a21.26,23.74 0 0 0 2.2,-2.25a28.39,31.69 0 0 0 1.89,-2.45q1.99,-2.86 3.72,-6.08a77.87,86.94 0 0 0 2.38,-4.78a68.43,76.4 0 0 0 0.7,-1.56a52.46,58.57 0 0 0 1.07,-2.6q0.62,-1.6 1.04,-3.02q0.75,-2.52 0.75,-3.78a2.96,3.31 0 0 0 -0.01,-0.17q-0.01,-0.24 -0.06,-0.35a0.21,0.24 0 0 0 -0.02,-0.03a0.24,0.27 0 0 0 -0.17,-0.13a0.36,0.39 0 0 0 -0.06,0a0.59,0.65 0 0 0 -0.28,0.11q-0.55,0.36 -1.68,1.95a30.77,34.36 0 0 0 -0.18,0.25a37.94,42.36 0 0 0 -1.16,1.77q-0.59,0.93 -1.23,2.03a89.39,99.8 0 0 0 -1.33,2.37q-2.1,3.86 -4.14,8.73q-2.03,4.87 -3.46,9.98l0.02,0l0.01,0.01zm193.19,13.71a47.58,53.13 0 0 0 0.74,-0.42q2.55,-1.47 4.92,-3.48a19.45,21.71 0 0 0 2.72,-2.78a16.61,18.55 0 0 0 1.19,-1.66a8.63,9.63 0 0 0 1.16,-2.54a7.32,8.18 0 0 0 0.38,-2.58a3.67,4.1 0 0 0 -0.03,-0.53q-0.07,-0.54 -0.27,-0.89a0.83,0.93 0 0 0 -0.35,-0.32q-0.29,-0.16 -0.75,-0.18a3.83,4.28 0 0 0 -0.18,0a5.4,6.03 0 0 0 -1.8,0.36q-0.7,0.28 -1.44,0.77a10.9,12.16 0 0 0 -0.59,0.42a17.36,19.38 0 0 0 -2.23,2.06a22.72,25.37 0 0 0 -1.68,2.01q-1.88,2.52 -3.38,5.54a26.01,29.04 0 0 0 -1.72,4.15a22.57,25.2 0 0 0 -0.54,1.88q1.73,-0.64 3.85,-1.8l0,-0.01zm-99.8,2.56q1.88,-3.1 3.12,-6.5a18,20.09 0 0 0 0.89,-3.1a13.32,14.87 0 0 0 0.35,-3.32q0,-2.14 -0.49,-3.27a2.74,3.06 0 0 0 -0.15,-0.29a2.73,3.05 0 0 0 -0.4,-0.57a1.68,1.88 0 0 0 -1.21,-0.56q-1.5,0 -3.08,2.43a8.06,9 0 0 0 -1.34,3.44a11.46,12.8 0 0 0 -0.24,2.69a15.77,17.61 0 0 0 0.6,4.76a17.57,19.61 0 0 0 0.04,0.15q0.64,2.47 1.91,4.15l0,-0.01z"/>
  </g>
</svg>