<svg viewBox="0 0 341.9 80.701"><g id="svgGroup" stroke-linecap="round" fill-rule="evenodd" font-size="9pt" stroke="#000" stroke-width="0" fill="#000" style="stroke:#000;stroke-width:0;fill:#000"><path d="M 14.857 80.221 A 23.135 23.135 0 0 0 19.7 80.7 Q 26.4 80.7 32.2 77.45 A 36.368 36.368 0 0 0 35.118 75.628 A 40.314 40.314 0 0 0 42.7 68.75 A 59.389 59.389 0 0 0 48.027 61.531 A 53.35 53.35 0 0 0 48.025 61.547 A 35.477 35.477 0 0 0 47.8 65.4 A 25.855 25.855 0 0 0 47.979 68.495 Q 48.244 70.69 48.9 72.6 A 11.663 11.663 0 0 0 49.062 73.042 Q 49.594 74.407 50.295 75.097 A 2.236 2.236 0 0 0 51.9 75.8 Q 53.3 75.8 54.6 73.8 A 20.912 20.912 0 0 0 55.216 72.788 Q 55.721 71.906 56.225 70.851 A 44.193 44.193 0 0 0 57.2 68.65 Q 58.5 65.5 59.95 62 Q 61.4 58.5 63.05 55.35 Q 64.7 52.2 66.7 50.2 A 8.18 8.18 0 0 1 67.468 49.52 A 5.953 5.953 0 0 1 71.2 48.2 A 4.623 4.623 0 0 1 71.25 48.2 A 3.664 3.664 0 0 1 73.9 49.3 Q 74.708 50.108 74.923 51.725 A 9.726 9.726 0 0 1 75 53 A 16.807 16.807 0 0 1 74.851 55.197 A 21.219 21.219 0 0 1 74.25 58.1 Q 73.5 60.8 72.7 63.4 A 23.043 23.043 0 0 0 72.549 63.913 Q 72.238 65.014 72.076 66.021 A 13.124 13.124 0 0 0 71.9 68.1 Q 71.9 70.8 73.65 72.6 A 5.225 5.225 0 0 0 74.804 73.493 Q 75.69 74.001 76.836 74.224 A 10.271 10.271 0 0 0 78.8 74.4 A 12.951 12.951 0 0 0 82.155 73.96 A 14.763 14.763 0 0 0 86.3 72.1 A 23.002 23.002 0 0 0 89.543 69.581 A 28.838 28.838 0 0 0 92.294 66.627 A 18.649 18.649 0 0 0 92.2 68.4 A 14.414 14.414 0 0 0 92.262 69.76 Q 92.379 70.999 92.721 72.014 A 6.384 6.384 0 0 0 94.35 74.65 Q 96.5 76.7 99.6 76.7 Q 101.913 76.7 104.167 75.567 A 14.686 14.686 0 0 0 106.85 73.8 A 30.925 30.925 0 0 0 109.385 71.458 Q 111.881 68.902 114.7 65.1 Q 114.6 65.9 114.5 66.65 Q 114.449 67.037 114.424 67.384 A 8.603 8.603 0 0 0 114.4 68 A 7.247 7.247 0 0 0 114.798 70.387 A 8.161 8.161 0 0 0 116.15 72.8 A 5.25 5.25 0 0 0 117.301 73.872 Q 118.249 74.52 119.527 74.796 A 9.836 9.836 0 0 0 121.6 75 A 12.358 12.358 0 0 0 125.813 74.231 A 17.14 17.14 0 0 0 128.95 72.7 Q 132.7 70.4 136 66.3 A 32.548 32.548 0 0 0 137.946 63.611 A 37.287 37.287 0 0 0 138.811 62.199 A 31.583 31.583 0 0 0 138.7 64.7 A 20.503 20.503 0 0 0 138.703 65.065 Q 138.777 69.223 140.55 72.05 A 5.995 5.995 0 0 0 144.363 74.74 A 9.816 9.816 0 0 0 146.7 75 A 11.54 11.54 0 0 0 148.282 74.892 Q 152.795 74.268 156.8 70.05 A 34.656 34.656 0 0 0 158.652 67.929 A 46.474 46.474 0 0 0 161.057 64.626 A 21.093 21.093 0 0 0 161 66.1 A 13.884 13.884 0 0 0 161.203 68.523 A 10.256 10.256 0 0 0 162.8 72.55 A 5.429 5.429 0 0 0 164.364 74.079 Q 166.103 75.2 168.9 75.2 A 9.929 9.929 0 0 0 170.451 75.077 Q 172.152 74.808 173.903 73.954 A 18.281 18.281 0 0 0 176.75 72.2 Q 180.8 69.2 184.2 64.7 Q 185.3 65.2 186.5 65.45 A 11.377 11.377 0 0 0 186.651 65.48 A 12.295 12.295 0 0 0 189 65.7 Q 192.3 65.7 195.95 63.75 A 11.378 11.378 0 0 0 199.417 60.843 L 199.5 61 A 44.419 44.419 0 0 0 200.091 59.97 A 74.427 74.427 0 0 0 200.291 59.607 A 16.442 16.442 0 0 0 201.577 57.155 A 127.083 127.083 0 0 0 202.406 55.488 A 194.074 194.074 0 0 0 203.6 53 Q 206.1 47.7 208.4 41.8 Q 210.3 43.1 212.15 44.65 Q 214 46.2 214 49.4 Q 214 51.025 213.473 52.904 A 20.755 20.755 0 0 1 212.65 55.25 Q 211.3 58.5 209.9 61.8 A 19.162 19.162 0 0 0 208.994 64.432 A 14.471 14.471 0 0 0 208.5 68.1 A 8.153 8.153 0 0 0 208.52 68.678 A 5.973 5.973 0 0 0 210.45 72.8 A 6.075 6.075 0 0 0 211.152 73.358 Q 212.221 74.086 213.634 74.387 A 10.386 10.386 0 0 0 215.8 74.6 A 14.161 14.161 0 0 0 219.907 73.99 A 16.861 16.861 0 0 0 224.15 72 A 28.946 28.946 0 0 0 226.189 70.563 A 32.321 32.321 0 0 0 230.851 66.128 A 18.649 18.649 0 0 0 230.7 68.4 A 14.414 14.414 0 0 0 230.762 69.76 Q 230.879 70.999 231.221 72.014 A 6.384 6.384 0 0 0 232.85 74.65 Q 235 76.7 238.1 76.7 Q 240.413 76.7 242.667 75.567 A 14.686 14.686 0 0 0 245.35 73.8 A 30.925 30.925 0 0 0 247.885 71.458 Q 250.381 68.902 253.2 65.1 Q 253.1 65.9 253 66.65 Q 252.949 67.037 252.924 67.384 A 8.603 8.603 0 0 0 252.9 68 A 7.247 7.247 0 0 0 253.298 70.387 A 8.161 8.161 0 0 0 254.65 72.8 A 5.25 5.25 0 0 0 255.801 73.872 Q 256.749 74.52 258.027 74.796 A 9.836 9.836 0 0 0 260.1 75 A 12.358 12.358 0 0 0 264.313 74.231 A 17.14 17.14 0 0 0 267.45 72.7 Q 271.2 70.4 274.5 66.3 A 32.548 32.548 0 0 0 276.446 63.611 A 37.287 37.287 0 0 0 276.726 63.169 A 48.088 48.088 0 0 0 276.723 63.192 A 30.174 30.174 0 0 0 276.5 66.7 Q 276.5 69.303 277.149 71.229 A 7.904 7.904 0 0 0 278.8 74.1 Q 280.346 75.78 282.794 76.331 A 11.866 11.866 0 0 0 285.4 76.6 A 16.71 16.71 0 0 0 289.062 76.195 A 18.697 18.697 0 0 0 294.5 74 A 27.222 27.222 0 0 0 298.015 71.521 A 32.78 32.78 0 0 0 302.55 66.9 A 42.52 42.52 0 0 0 304.001 64.993 A 15.13 15.13 0 0 0 304.023 65.631 A 11.624 11.624 0 0 0 307.05 73.05 A 9.065 9.065 0 0 0 309.076 74.711 Q 310.64 75.657 312.686 76.073 A 17.65 17.65 0 0 0 316.2 76.4 A 20.349 20.349 0 0 0 319.659 76.104 A 22.673 22.673 0 0 0 326.05 73.95 A 29.735 29.735 0 0 0 329.589 71.838 A 34.719 34.719 0 0 0 335.05 67.1 A 34.54 34.54 0 0 0 337.27 64.498 A 38.699 38.699 0 0 0 341.9 56.7 L 340.7 55.8 Q 338.2 60.6 334.6 64.6 Q 331 68.6 326.8 71.05 Q 322.6 73.5 318.3 73.5 A 14.017 14.017 0 0 1 317.61 73.483 Q 316.752 73.441 316.009 73.291 A 7.298 7.298 0 0 1 314.45 72.8 A 7.101 7.101 0 0 1 313.892 72.518 A 5.787 5.787 0 0 1 312 70.85 Q 311.1 69.6 310.75 68.1 Q 310.4 66.6 310.4 65.1 A 13.732 13.732 0 0 1 310.414 64.486 A 16.544 16.544 0 0 1 310.5 63.4 A 19.875 19.875 0 0 1 310.589 62.711 A 23.767 23.767 0 0 1 310.8 61.5 A 30.478 30.478 0 0 0 312.549 61.286 A 33.683 33.683 0 0 0 319.45 59.45 Q 323.8 57.8 327.45 55.2 Q 331.1 52.6 333.35 49.25 A 15.179 15.179 0 0 0 333.523 48.988 A 12.531 12.531 0 0 0 335.6 42.1 A 14.038 14.038 0 0 0 335.6 42.071 Q 335.596 40.125 335.05 38.874 A 3.578 3.578 0 0 0 333.65 37.2 Q 331.7 36 329.4 36 A 15.115 15.115 0 0 0 324.419 36.87 A 20.295 20.295 0 0 0 320.5 38.75 A 31.684 31.684 0 0 0 317.761 40.63 A 36.04 36.04 0 0 0 312.25 45.9 A 43.151 43.151 0 0 0 312.221 45.934 A 39.353 39.353 0 0 0 306.25 55.3 A 27.753 27.753 0 0 0 304.712 59.579 A 20.368 20.368 0 0 0 304.352 61.146 A 47.437 47.437 0 0 1 303.062 63.07 A 33.464 33.464 0 0 1 298.5 68.3 A 24.857 24.857 0 0 1 297.679 69.024 Q 295.895 70.525 294.087 71.445 A 12.647 12.647 0 0 1 288.3 72.9 Q 285.3 72.9 284 71.05 A 4.765 4.765 0 0 1 283.618 70.397 Q 282.99 69.109 282.792 67.012 A 22.505 22.505 0 0 1 282.7 64.9 A 36.128 36.128 0 0 1 282.841 61.727 A 41.313 41.313 0 0 1 284.3 54 Q 285.9 48.4 288.2 43.1 L 288.95 43.1 L 289.7 43.1 Q 293.1 43.1 297.45 42.8 A 177.381 177.381 0 0 0 298.033 42.759 Q 300.091 42.61 302.397 42.397 A 302.508 302.508 0 0 0 307.3 41.9 L 307.3 40.1 Q 303.6 40.5 299.95 40.6 Q 296.3 40.7 293 40.7 L 291.15 40.7 L 289.3 40.7 A 158.425 158.425 0 0 1 291.132 36.913 A 134.642 134.642 0 0 1 295.3 29.2 A 501.112 501.112 0 0 0 297.14 26.029 Q 299.056 22.697 300.5 20.05 A 43.938 43.938 0 0 0 300.794 19.503 Q 302.113 17 302.469 15.484 A 4.378 4.378 0 0 0 302.6 14.5 Q 302.6 14.087 302.509 13.751 A 1.752 1.752 0 0 0 301.95 12.85 A 2.751 2.751 0 0 0 301.889 12.8 A 2.174 2.174 0 0 0 300.5 12.3 Q 299.352 12.3 297.822 13.678 A 14.304 14.304 0 0 0 296.85 14.65 A 25.255 25.255 0 0 0 295.788 15.893 Q 294.126 17.964 292.35 20.95 Q 290 24.9 287.6 29.95 Q 285.2 35 283.1 40.4 A 180.465 180.465 0 0 1 282.916 40.387 Q 281.627 40.293 280.6 40.2 Q 279.5 40.1 278.7 40 L 278.7 41.8 Q 279.5 42.1 280.4 42.25 Q 281.3 42.4 282.3 42.6 Q 279.8 49.4 278.15 55.85 A 69.769 69.769 0 0 0 277.652 57.919 A 74.771 74.771 0 0 1 276.328 60.006 Q 274.78 62.348 273.245 64.217 A 31.332 31.332 0 0 1 270 67.65 Q 266.906 70.427 264.653 71.252 A 5.135 5.135 0 0 1 262.9 71.6 A 4.039 4.039 0 0 1 262.467 71.578 Q 261.786 71.504 261.27 71.191 A 2.722 2.722 0 0 1 260.3 70.15 A 7.159 7.159 0 0 1 260.028 69.604 A 5.859 5.859 0 0 1 259.5 67.2 A 7.254 7.254 0 0 1 259.501 67.073 Q 259.532 65.328 260.4 63.35 Q 261.3 61.3 262.4 59.3 Q 262.985 58.238 263.513 57.302 A 145.901 145.901 0 0 1 264.4 55.75 A 12.368 12.368 0 0 0 264.666 55.269 Q 265.076 54.485 265.221 53.892 A 2.51 2.51 0 0 0 265.3 53.3 A 1.48 1.48 0 0 0 265.027 52.417 A 1.808 1.808 0 0 0 264.6 52 A 5.186 5.186 0 0 0 263.934 51.598 A 6.466 6.466 0 0 0 262.95 51.2 A 22.651 22.651 0 0 0 262.864 51.173 Q 262.265 50.986 261.809 50.882 A 6.992 6.992 0 0 0 261.4 50.8 A 0.072 0.072 0 0 0 261.365 50.813 Q 261.266 50.873 261.029 51.211 A 9.739 9.739 0 0 0 260.9 51.4 Q 258.9 54.4 256.3 58 Q 253.7 61.6 250.85 64.95 A 56.926 56.926 0 0 1 250.449 65.417 Q 249.141 66.921 247.864 68.171 A 33.59 33.59 0 0 1 245.3 70.45 Q 242.6 72.6 240.3 72.6 A 3.589 3.589 0 0 1 240.154 72.597 Q 237.6 72.493 237.6 68.7 A 15.035 15.035 0 0 1 237.634 67.709 Q 237.719 66.415 238.023 64.974 A 28.274 28.274 0 0 1 238.8 62.1 A 38.5 38.5 0 0 1 239.685 59.661 A 45.316 45.316 0 0 1 242.1 54.6 Q 244.2 50.8 246.9 47.55 A 31.64 31.64 0 0 1 249.345 44.913 A 23.691 23.691 0 0 1 252.5 42.35 A 15.426 15.426 0 0 1 252.653 42.249 Q 253.799 41.498 254.929 41.052 A 8.865 8.865 0 0 1 258.2 40.4 Q 259.297 40.4 260.13 40.672 A 3.459 3.459 0 0 1 262 42.05 A 6.315 6.315 0 0 1 262.867 44.018 A 8.048 8.048 0 0 1 263.1 46 Q 263.1 46.8 262.95 47.75 A 23.066 23.066 0 0 1 262.809 48.553 A 18.324 18.324 0 0 1 262.6 49.5 A 9.891 9.891 0 0 0 263.22 49.481 Q 264.996 49.369 266.15 48.6 Q 267.152 47.932 267.41 46.383 A 7.213 7.213 0 0 0 267.5 45.2 A 8.351 8.351 0 0 0 267.469 44.472 A 6.51 6.51 0 0 0 264.9 39.75 A 9.203 9.203 0 0 0 261.446 38.061 A 12.227 12.227 0 0 0 258.4 37.7 A 15.733 15.733 0 0 0 254.733 38.139 A 19.076 19.076 0 0 0 250.55 39.7 A 29.188 29.188 0 0 0 248.121 41.082 A 33.55 33.55 0 0 0 243.05 45.05 Q 239.5 48.4 236.7 52.45 A 44.377 44.377 0 0 0 235.356 54.513 A 37.798 37.798 0 0 0 232.3 60.65 A 30.579 30.579 0 0 0 232.277 60.711 A 25.741 25.741 0 0 0 231.894 61.766 A 38.964 38.964 0 0 1 228.3 65.7 A 30.495 30.495 0 0 1 226.786 67.059 A 25.453 25.453 0 0 1 223.35 69.5 A 11.989 11.989 0 0 1 221.225 70.499 A 8.545 8.545 0 0 1 218.4 71 A 4.5 4.5 0 0 1 217.979 70.981 A 3.579 3.579 0 0 1 216.3 70.4 A 1.557 1.557 0 0 1 216.147 70.284 Q 215.4 69.64 215.4 68 Q 215.4 66.622 215.939 64.942 A 18.056 18.056 0 0 1 216.65 63.1 Q 217.9 60.3 219.15 57.2 Q 220.39 54.124 220.4 51.147 A 14.386 14.386 0 0 0 220.4 51.1 A 13.119 13.119 0 0 0 220.4 51.02 Q 220.393 49.791 220.154 48.733 A 7.414 7.414 0 0 0 218.85 45.85 Q 217.3 43.8 215.3 42.35 A 548.033 548.033 0 0 1 214.747 41.948 Q 213.082 40.738 211.75 39.75 Q 210.2 38.6 210.2 37.2 A 0.412 0.412 0 0 1 210.201 37.173 Q 210.219 36.905 210.563 35.953 A 35.513 35.513 0 0 1 210.75 35.45 A 23.542 23.542 0 0 0 210.885 35.085 Q 211.196 34.224 211.274 33.764 A 1.615 1.615 0 0 0 211.3 33.5 A 4.206 4.206 0 0 0 211.295 33.306 Q 211.273 32.83 211.15 32.05 A 1.55 1.55 0 0 0 211.121 31.908 Q 210.967 31.305 210.364 31.152 A 1.888 1.888 0 0 0 209.9 31.1 A 0.926 0.926 0 0 0 209.611 31.152 Q 209.012 31.351 208.054 32.307 A 16.95 16.95 0 0 0 207.4 33 A 6.425 6.425 0 0 0 205.97 35.684 A 8.649 8.649 0 0 0 205.7 37.9 A 3.89 3.89 0 0 0 205.7 37.944 A 3.27 3.27 0 0 0 206.7 40.3 Q 204.5 46.7 202.25 51.7 Q 200.563 55.45 199.353 57.85 A 60.552 60.552 0 0 1 198.993 58.556 A 10.529 10.529 0 0 1 197.25 60.4 A 14.477 14.477 0 0 1 195.596 61.581 A 10.905 10.905 0 0 1 193.3 62.65 A 16.91 16.91 0 0 1 192.768 62.813 Q 191.982 63.041 191.26 63.162 A 9.435 9.435 0 0 1 189.7 63.3 Q 187.7 63.3 185.9 62.3 Q 188.8 57.9 190.7 53.15 A 34.344 34.344 0 0 0 191.116 52.057 Q 191.813 50.127 192.183 48.343 A 18.954 18.954 0 0 0 192.6 44.5 A 15.237 15.237 0 0 0 192.598 44.226 Q 192.574 42.913 192.323 41.779 A 8.597 8.597 0 0 0 191.2 39 Q 190.15 37.35 187.581 36.938 A 11.903 11.903 0 0 0 185.7 36.8 A 10.336 10.336 0 0 0 184.823 36.837 A 8.031 8.031 0 0 0 180.4 38.55 A 10.183 10.183 0 0 0 178.674 40.304 A 11.86 11.86 0 0 0 177.05 43.2 Q 175.9 46.1 175.9 49.4 Q 175.9 53.3 177.45 57.05 A 17.942 17.942 0 0 0 178.245 58.728 A 14.503 14.503 0 0 0 181.8 63.1 A 40.525 40.525 0 0 1 179.153 66.107 A 29.963 29.963 0 0 1 176.1 68.85 A 19.47 19.47 0 0 1 175.599 69.226 Q 173.017 71.1 171.1 71.1 Q 169.5 71.1 168.5 69.75 A 3.449 3.449 0 0 1 168.267 69.388 Q 167.5 68.026 167.5 65.4 A 11.477 11.477 0 0 1 167.559 64.272 Q 167.635 63.507 167.808 62.637 A 25.492 25.492 0 0 1 168.25 60.8 A 48.638 48.638 0 0 1 168.297 60.631 A 52.685 52.685 0 0 1 170.1 55.35 A 43.267 43.267 0 0 1 171.101 53.039 A 33.287 33.287 0 0 1 172.45 50.45 A 28.267 28.267 0 0 1 172.895 49.71 Q 173.864 48.154 174.6 47.5 A 8.973 8.973 0 0 0 174.538 47.475 A 9.742 9.742 0 0 0 173.55 47.15 A 4.572 4.572 0 0 0 173.178 47.065 A 3.729 3.729 0 0 0 172.5 47 A 4.926 4.926 0 0 0 171.684 47.068 Q 170.719 47.23 169.766 47.775 A 8.699 8.699 0 0 0 168.35 48.8 A 15.684 15.684 0 0 0 166.285 51.023 A 21.34 21.34 0 0 0 164.65 53.5 Q 163 56.4 162 59.7 A 25.06 25.06 0 0 0 161.877 60.117 A 53.202 53.202 0 0 1 159.95 63.35 A 35.163 35.163 0 0 1 157.681 66.497 A 26.199 26.199 0 0 1 154.95 69.4 A 13.216 13.216 0 0 1 154.424 69.852 Q 152.033 71.8 149.6 71.8 Q 148.24 71.8 147.301 71.074 A 3.975 3.975 0 0 1 146.3 69.9 A 5.389 5.389 0 0 1 146.078 69.472 Q 145.477 68.178 145.287 66.136 A 22.133 22.133 0 0 1 145.2 64.1 A 31.905 31.905 0 0 1 145.238 62.564 A 37.76 37.76 0 0 1 145.55 59.25 A 59.276 59.276 0 0 1 145.666 58.449 A 66.011 66.011 0 0 1 146.5 54 A 49.717 49.717 0 0 0 149.472 51.36 A 58.862 58.862 0 0 0 154.85 45.4 Q 158.8 40.4 162.15 34.95 A 110.916 110.916 0 0 0 163.769 32.231 A 97.709 97.709 0 0 0 167.95 24.15 Q 169.328 21.141 170.358 18.448 A 65.881 65.881 0 0 0 171.75 14.45 A 50.358 50.358 0 0 0 171.868 14.065 Q 172.677 11.383 172.955 9.35 A 14.488 14.488 0 0 0 173.1 7.4 A 10.197 10.197 0 0 0 173.096 7.101 Q 173.058 5.815 172.7 4.25 A 15.61 15.61 0 0 0 172.649 4.033 Q 172.256 2.422 171.6 1.25 A 4.111 4.111 0 0 0 171.54 1.146 Q 171.335 0.804 171.098 0.564 A 1.771 1.771 0 0 0 169.8 0 Q 168.469 0 166.371 2.086 A 24.453 24.453 0 0 0 165.15 3.4 Q 163.26 5.578 161.145 8.7 A 100.995 100.995 0 0 0 158.7 12.5 Q 155.2 18.2 151.7 25.15 Q 148.2 32.1 145.25 39.4 Q 142.3 46.7 140.5 53.3 A 65.721 65.721 0 0 0 139.729 56.415 A 47.663 47.663 0 0 0 139.546 57.267 A 74.771 74.771 0 0 1 137.828 60.006 Q 136.28 62.348 134.745 64.217 A 31.332 31.332 0 0 1 131.5 67.65 Q 128.406 70.427 126.153 71.252 A 5.135 5.135 0 0 1 124.4 71.6 A 4.039 4.039 0 0 1 123.967 71.578 Q 123.286 71.504 122.77 71.191 A 2.722 2.722 0 0 1 121.8 70.15 A 7.159 7.159 0 0 1 121.528 69.604 A 5.859 5.859 0 0 1 121 67.2 A 7.254 7.254 0 0 1 121.001 67.073 Q 121.032 65.328 121.9 63.35 Q 122.8 61.3 123.9 59.3 Q 124.485 58.238 125.013 57.302 A 145.901 145.901 0 0 1 125.9 55.75 A 12.368 12.368 0 0 0 126.166 55.269 Q 126.576 54.485 126.721 53.892 A 2.51 2.51 0 0 0 126.8 53.3 A 1.48 1.48 0 0 0 126.527 52.417 A 1.808 1.808 0 0 0 126.1 52 A 5.186 5.186 0 0 0 125.434 51.598 A 6.466 6.466 0 0 0 124.45 51.2 A 22.651 22.651 0 0 0 124.364 51.173 Q 123.765 50.986 123.309 50.882 A 6.992 6.992 0 0 0 122.9 50.8 A 0.072 0.072 0 0 0 122.865 50.813 Q 122.766 50.873 122.529 51.211 A 9.739 9.739 0 0 0 122.4 51.4 Q 120.4 54.4 117.8 58 Q 115.2 61.6 112.35 64.95 A 56.926 56.926 0 0 1 111.949 65.417 Q 110.641 66.921 109.364 68.171 A 33.59 33.59 0 0 1 106.8 70.45 Q 104.1 72.6 101.8 72.6 A 3.589 3.589 0 0 1 101.654 72.597 Q 99.1 72.493 99.1 68.7 A 15.035 15.035 0 0 1 99.134 67.709 Q 99.219 66.415 99.523 64.974 A 28.274 28.274 0 0 1 100.3 62.1 A 38.5 38.5 0 0 1 101.185 59.661 A 45.316 45.316 0 0 1 103.6 54.6 Q 105.7 50.8 108.4 47.55 A 31.64 31.64 0 0 1 110.845 44.913 A 23.691 23.691 0 0 1 114 42.35 A 15.426 15.426 0 0 1 114.153 42.249 Q 115.299 41.498 116.429 41.052 A 8.865 8.865 0 0 1 119.7 40.4 Q 120.797 40.4 121.63 40.672 A 3.459 3.459 0 0 1 123.5 42.05 A 6.315 6.315 0 0 1 124.367 44.018 A 8.048 8.048 0 0 1 124.6 46 Q 124.6 46.8 124.45 47.75 A 23.066 23.066 0 0 1 124.309 48.553 A 18.324 18.324 0 0 1 124.1 49.5 A 9.891 9.891 0 0 0 124.72 49.481 Q 126.496 49.369 127.65 48.6 Q 128.652 47.932 128.91 46.383 A 7.213 7.213 0 0 0 129 45.2 A 8.351 8.351 0 0 0 128.969 44.472 A 6.51 6.51 0 0 0 126.4 39.75 A 9.203 9.203 0 0 0 122.946 38.061 A 12.227 12.227 0 0 0 119.9 37.7 A 15.733 15.733 0 0 0 116.233 38.139 A 19.076 19.076 0 0 0 112.05 39.7 A 29.188 29.188 0 0 0 109.621 41.082 A 33.55 33.55 0 0 0 104.55 45.05 Q 101 48.4 98.2 52.45 A 44.377 44.377 0 0 0 96.856 54.513 A 37.798 37.798 0 0 0 93.8 60.65 A 30.579 30.579 0 0 0 93.777 60.711 A 25.741 25.741 0 0 0 93.461 61.57 A 42.367 42.367 0 0 1 91.9 63.75 A 44.523 44.523 0 0 1 91.435 64.346 Q 90.178 65.928 88.911 67.219 A 26.056 26.056 0 0 1 86.25 69.6 A 14.947 14.947 0 0 1 84.697 70.66 Q 83.841 71.163 83.04 71.444 A 5.853 5.853 0 0 1 81.1 71.8 A 3.681 3.681 0 0 1 80.999 71.799 A 2.813 2.813 0 0 1 78.95 70.9 A 2.244 2.244 0 0 1 78.917 70.865 Q 78.335 70.22 78.167 69.038 A 7.436 7.436 0 0 1 78.1 68 Q 78.1 65.5 79.2 62.8 A 140.069 140.069 0 0 0 79.269 62.631 A 152.389 152.389 0 0 0 81.35 57.2 Q 82.4 54.3 82.4 51.2 Q 82.4 49 81.65 46.95 Q 80.9 44.9 79.25 43.55 Q 78.18 42.675 76.627 42.367 A 9.404 9.404 0 0 0 74.8 42.2 Q 72.1 42.2 69.7 43.55 A 15.47 15.47 0 0 0 67.434 45.116 A 19.99 19.99 0 0 0 65.15 47.35 A 32.497 32.497 0 0 0 63.317 49.647 A 40.351 40.351 0 0 0 61.1 53.05 A 57.403 57.403 0 0 0 59.937 55.14 A 67.355 67.355 0 0 0 57.55 60.15 Q 55.9 64 54.5 68.1 A 16.896 16.896 0 0 1 54.432 67.561 A 20.408 20.408 0 0 1 54.35 66.6 A 21.261 21.261 0 0 1 54.33 66.209 Q 54.315 65.869 54.307 65.483 A 41.325 41.325 0 0 1 54.3 64.7 Q 54.3 62 54.7 58.55 A 56.757 56.757 0 0 1 54.807 57.685 A 62.247 62.247 0 0 1 55.95 51.5 Q 56.8 47.9 58 45 A 27.853 27.853 0 0 0 61.583 42.422 A 37.76 37.76 0 0 0 64.9 39.25 A 56.847 56.847 0 0 0 65.112 39.021 A 61.285 61.285 0 0 0 71.2 31.2 Q 74.1 26.8 76.3 22.25 A 72.98 72.98 0 0 0 78.154 18.105 A 55.096 55.096 0 0 0 79.75 13.7 A 36.141 36.141 0 0 0 80.34 11.602 Q 80.66 10.311 80.824 9.169 A 15.955 15.955 0 0 0 81 6.9 Q 81 4.9 80.25 2.75 A 5.718 5.718 0 0 0 80.159 2.505 Q 79.395 0.6 77.7 0.6 Q 76.016 0.6 73.863 2.593 A 19.478 19.478 0 0 0 72.5 4 A 39.72 39.72 0 0 0 70.931 5.9 Q 69.765 7.4 68.543 9.224 A 87.584 87.584 0 0 0 66.1 13.1 Q 62.7 18.8 59.45 25.8 Q 56.2 32.8 53.6 40.1 A 157.921 157.921 0 0 0 51.791 45.477 A 129.608 129.608 0 0 0 49.4 54 A 72.896 72.896 0 0 0 48.745 56.96 A 41.762 41.762 0 0 1 42.3 66.4 A 44.036 44.036 0 0 1 40.62 68.171 A 37.981 37.981 0 0 1 32.65 74.3 A 25.27 25.27 0 0 1 29.693 75.75 A 19.891 19.891 0 0 1 22.1 77.3 A 15.422 15.422 0 0 1 19.156 77.031 A 10.92 10.92 0 0 1 13.95 74.55 A 14.368 14.368 0 0 1 11.382 71.598 A 16.964 16.964 0 0 1 9.4 67.35 Q 8 62.9 8 58 A 48.295 48.295 0 0 1 8.339 52.359 A 58.981 58.981 0 0 1 10.05 43.7 Q 12.1 36.2 15.6 29 Q 19.1 21.8 23.45 15.95 A 63.288 63.288 0 0 1 23.995 15.228 Q 28.091 9.881 32.45 6.6 A 24.037 24.037 0 0 1 33.751 5.685 Q 37.705 3.1 41.4 3.1 Q 42.823 3.1 43.812 3.475 A 3.435 3.435 0 0 1 45.15 4.35 A 4.193 4.193 0 0 1 46.125 6.152 A 5.677 5.677 0 0 1 46.3 7.6 Q 46.3 9.7 45.25 12.45 Q 44.2 15.2 42.5 18.05 Q 40.8 20.9 38.95 23.45 Q 37.794 25.044 36.774 26.305 A 42.198 42.198 0 0 1 35.6 27.7 A 6.344 6.344 0 0 0 35.867 28.218 Q 36.096 28.613 36.355 28.91 A 2.835 2.835 0 0 0 37.05 29.5 A 3.996 3.996 0 0 0 37.759 29.833 A 2.848 2.848 0 0 0 38.7 30 A 4.196 4.196 0 0 0 40.171 29.728 Q 41.521 29.227 42.85 27.8 Q 44.003 26.563 45.046 24.961 A 29.138 29.138 0 0 0 46.6 22.25 Q 48.3 18.9 49.3 15.25 Q 49.863 13.197 50.109 11.381 A 19.997 19.997 0 0 0 50.3 8.7 A 14.68 14.68 0 0 0 50.21 7.027 Q 49.82 3.633 47.75 2.05 Q 46.147 0.824 43.93 0.369 A 14.07 14.07 0 0 0 41.1 0.1 A 21.221 21.221 0 0 0 35.002 1.017 A 27.378 27.378 0 0 0 29.55 3.35 A 40.875 40.875 0 0 0 24.526 6.662 A 50.917 50.917 0 0 0 18.4 12.25 A 63.02 63.02 0 0 0 16.413 14.472 A 69.948 69.948 0 0 0 8.95 25.15 Q 4.8 32.4 2.4 40.4 A 61.196 61.196 0 0 0 2.253 40.9 A 54.947 54.947 0 0 0 0 56.3 Q 0 62.4 1.95 68 A 23.699 23.699 0 0 0 2.074 68.348 A 19.969 19.969 0 0 0 8.25 77.15 A 14.045 14.045 0 0 0 9.229 77.88 Q 11.665 79.538 14.857 80.221 Z M 147.4 50.6 A 62.647 62.647 0 0 0 151.908 45.554 A 75.912 75.912 0 0 0 154.2 42.55 Q 157.5 38 160.35 33.1 Q 163.2 28.2 165.4 23.6 Q 167.6 19 168.8 15.35 Q 169.798 12.315 169.966 10.421 A 8.177 8.177 0 0 0 170 9.7 A 6.299 6.299 0 0 0 169.988 9.296 Q 169.949 8.69 169.782 8.443 A 0.526 0.526 0 0 0 169.75 8.4 A 1.556 1.556 0 0 0 169.636 8.276 Q 169.508 8.153 169.394 8.116 A 0.304 0.304 0 0 0 169.3 8.1 A 0.927 0.927 0 0 0 168.864 8.239 Q 168.045 8.695 166.55 10.65 A 49.537 49.537 0 0 0 165.133 12.61 Q 163.706 14.678 162 17.5 Q 159.4 21.8 156.7 27.3 A 183.076 183.076 0 0 0 151.704 38.425 A 199.301 199.301 0 0 0 151.55 38.8 A 123.762 123.762 0 0 0 147.865 49.056 A 111.599 111.599 0 0 0 147.4 50.6 Z M 59.3 41.1 A 28.296 28.296 0 0 0 62.233 38.424 A 37.783 37.783 0 0 0 64.75 35.5 Q 67.4 32.1 69.7 28.25 A 103.637 103.637 0 0 0 72.869 22.559 A 91.068 91.068 0 0 0 73.8 20.7 A 69.821 69.821 0 0 0 75.222 17.596 Q 76.038 15.688 76.6 14 Q 77.6 11 77.6 9.5 A 3.935 3.935 0 0 0 77.595 9.298 Q 77.58 9.007 77.518 8.881 A 0.282 0.282 0 0 0 77.5 8.85 A 0.323 0.323 0 0 0 77.266 8.704 A 0.471 0.471 0 0 0 77.2 8.7 A 0.775 0.775 0 0 0 76.829 8.829 Q 76.092 9.262 74.59 11.146 A 40.963 40.963 0 0 0 74.35 11.45 A 50.487 50.487 0 0 0 72.795 13.559 Q 72.017 14.67 71.168 15.98 A 118.972 118.972 0 0 0 69.4 18.8 Q 66.6 23.4 63.9 29.2 Q 61.2 35 59.3 41.1 Z M 316.416 57.446 A 63.326 63.326 0 0 0 317.4 56.95 Q 320.8 55.2 323.95 52.8 A 25.888 25.888 0 0 0 327.573 49.477 A 22.105 22.105 0 0 0 329.15 47.5 A 11.479 11.479 0 0 0 330.704 44.477 A 9.744 9.744 0 0 0 331.2 41.4 A 4.876 4.876 0 0 0 331.161 40.761 Q 331.075 40.113 330.8 39.7 A 1.112 1.112 0 0 0 330.339 39.317 Q 329.954 39.134 329.34 39.105 A 5.098 5.098 0 0 0 329.1 39.1 A 7.193 7.193 0 0 0 326.705 39.534 Q 325.762 39.866 324.777 40.452 A 14.496 14.496 0 0 0 324 40.95 A 23.1 23.1 0 0 0 321.026 43.395 A 30.237 30.237 0 0 0 318.8 45.8 Q 316.3 48.8 314.3 52.4 A 34.613 34.613 0 0 0 312.023 57.35 A 30.043 30.043 0 0 0 311.3 59.6 Q 313.603 58.832 316.416 57.446 Z M 183.6 60.5 Q 186.1 56.8 187.75 52.75 A 23.947 23.947 0 0 0 188.935 49.052 A 17.735 17.735 0 0 0 189.4 45.1 Q 189.4 42.555 188.745 41.203 A 3.65 3.65 0 0 0 188.55 40.85 A 3.631 3.631 0 0 0 188.006 40.167 A 2.242 2.242 0 0 0 186.4 39.5 Q 184.4 39.5 182.3 42.4 A 10.731 10.731 0 0 0 180.521 46.491 A 15.248 15.248 0 0 0 180.2 49.7 A 20.988 20.988 0 0 0 180.998 55.366 A 23.378 23.378 0 0 0 181.05 55.55 Q 181.9 58.5 183.6 60.5 Z" vector-effect="non-scaling-stroke"/></g></svg>